<?xml version="1.0" standalone="no"?>
<!DOCTYPE svg PUBLIC "-//W3C//DTD SVG 20010904//EN"
 "http://www.w3.org/TR/2001/REC-SVG-20010904/DTD/svg10.dtd">
<svg version="1.0" xmlns="http://www.w3.org/2000/svg"
 width="340.000000pt" height="340.000000pt" viewBox="0 0 340.000000 340.000000"
 preserveAspectRatio="xMidYMid meet">
<metadata>
Created by potrace 1.11, written by Peter Selinger 2001-2013
</metadata>
<g transform="translate(0.000000,340.000000) scale(0.100000,-0.100000)"
fill="#000000" stroke="none">
<path d="M0 1700 l0 -1700 1700 0 1700 0 0 1700 0 1700 -1700 0 -1700 0 0
-1700z m1128 250 c2 -431 -1 -660 -8 -714 -17 -121 -44 -183 -104 -242 -74
-72 -118 -86 -294 -92 -184 -6 -182 -7 -182 127 0 53 4 101 8 107 5 9 31 9 98
1 82 -9 95 -8 129 9 47 23 73 57 85 110 5 21 10 327 10 680 0 352 3 644 7 648
4 3 61 5 127 4 l121 -3 3 -635z m800 0 c2 -431 -1 -660 -8 -714 -17 -121 -44
-183 -104 -242 -74 -72 -118 -86 -294 -92 -184 -6 -182 -7 -182 127 0 53 4
101 8 107 5 9 31 9 98 1 82 -9 95 -8 129 9 47 23 73 57 85 110 5 21 10 327 10
680 0 352 3 644 7 648 4 3 61 5 127 4 l121 -3 3 -635z m800 0 c2 -431 -1 -660
-8 -714 -17 -121 -44 -183 -104 -242 -74 -72 -118 -86 -294 -92 -184 -6 -182
-7 -182 127 0 53 4 101 8 107 5 9 31 9 98 1 82 -9 95 -8 129 9 47 23 73 57 85
110 5 21 10 327 10 680 0 352 3 644 7 648 4 3 61 5 127 4 l121 -3 3 -635z"/>
</g>
</svg>
